<svg xmlns="http://www.w3.org/2000/svg" width="40" height="60" viewBox="0 0 40 60"><defs><style>.a{fill:#fff;}</style></defs><g transform="translate(-12 -2)"><path class="a" d="M44,21A12,12,0,1,0,32,33,12,12,0,0,0,44,21ZM22,21A10,10,0,1,1,32,31,10,10,0,0,1,22,21Z"/><path class="a" d="M39.414,46.544C44.993,40,52,30.168,52,22a20,20,0,1,0-40,0c0,8.168,7.007,18,12.586,24.544C16.88,47.709,12,50.555,12,54c0,5.2,10.305,8,20,8s20-2.8,20-8C52,50.555,47.12,47.709,39.414,46.544ZM32,4A18.021,18.021,0,0,1,50,22c0,11.042-14.625,26.241-18,29.6C28.625,48.241,14,33.042,14,22A18.021,18.021,0,0,1,32,4Zm0,56c-10.607,0-18-3.162-18-6,0-2.052,4.264-4.693,12.162-5.65,2.759,3.092,4.894,5.133,5.15,5.376a1,1,0,0,0,1.376,0c.256-.243,2.391-2.284,5.15-5.376C45.736,49.307,50,51.948,50,54,50,56.838,42.607,60,32,60Z"/></g></svg>