<svg height="512pt" viewBox="-146 0 512 512" width="512pt" xmlns="http://www.w3.org/2000/svg"><path fill="#fff" d="m100 90c0 5.519531 4.480469 10 10 10s10-4.480469 10-10-4.480469-10-10-10-10 4.480469-10 10zm0 0"/><path fill="#fff" d="m156.507812 42.078125c3.488282 4.269531 9.789063 4.914063 14.070313 1.414063 4.277344-3.496094 4.910156-9.792969 1.414063-14.070313-15.28125-18.699219-37.878907-29.421875-61.992188-29.421875s-46.710938 10.722656-61.992188 29.421875c-3.496093 4.277344-2.863281 10.574219 1.414063 14.070313 4.277344 3.496093 10.574219 2.863281 14.070313-1.414063 11.46875-14.03125 28.417968-22.078125 46.507812-22.078125s35.039062 8.046875 46.507812 22.078125zm0 0"/><path fill="#fff" d="m127.078125 69.605469c2.875 4.699219 9.027344 6.203125 13.75 3.316406 4.710937-2.882813 6.195313-9.039063 3.3125-13.75-7.339844-12.003906-20.101563-19.171875-34.140625-19.171875s-26.800781 7.167969-34.140625 19.175781c-2.882813 4.710938-1.398437 10.863281 3.3125 13.746094 4.710937 2.878906 10.867187 1.394531 13.75-3.316406 3.679687-6.015625 10.0625-9.605469 17.078125-9.605469s13.402344 3.589844 17.078125 9.605469zm0 0"/><path fill="#fff" d="m0 402c0 60.652344 49.347656 110 110 110s110-49.347656 110-110v-252c0-16.542969-13.457031-30-30-30h-160c-16.542969 0-30 13.457031-30 30v91c0 5.523438 4.476562 10 10 10s10-4.476562 10-10v-91c0-5.515625 4.484375-10 10-10h160c5.515625 0 10 4.484375 10 10v252c0 49.625-40.375 90-90 90s-90-40.375-90-90v-81c0-5.523438-4.476562-10-10-10s-10 4.476562-10 10zm0 0"/><path fill="#fff" d="m170 226c0-33.085938-26.914062-60-60-60s-60 26.914062-60 60 26.914062 60 60 60 60-26.914062 60-60zm-60 40c-22.054688 0-40-17.945312-40-40s17.945312-40 40-40 40 17.945312 40 40-17.945312 40-40 40zm0 0"/><path fill="#fff" d="m90 312c-5.523438 0-10 4.476562-10 10v80c0 5.523438 4.476562 10 10 10h40c5.523438 0 10-4.476562 10-10v-80c0-5.523438-4.476562-10-10-10zm30 20v20h-20v-20zm-20 60v-20h20v20zm0 0"/><path fill="#fff" d="m10 291c5.519531 0 10-4.480469 10-10s-4.480469-10-10-10-10 4.480469-10 10 4.480469 10 10 10zm0 0"/></svg>