<?xml version="1.0"?>
<svg xmlns="http://www.w3.org/2000/svg" id="Layer_1" enable-background="new 0 0 512.001 512.001" viewBox="0 0 512.001 512.001" width="512px" height="512px"><g><g><g><g><path d="m437.334 0h-234.666s0 0-2.133 0c0 0 0 0-2.133 0s-4.267 2.133-4.267 2.133l-128 128c-2.135 2.134-2.135 2.134-2.135 4.267v2.133 2.133 362.667c0 6.4 4.267 10.667 10.667 10.667h362.667c6.4 0 10.667-4.267 10.667-10.667v-490.666c0-6.4-4.267-10.667-10.667-10.667zm-245.333 36.267v91.733h-91.733zm-32 390.4c-6.4 0-10.667-4.267-10.667-10.667v-38.4l-2.133 2.133c-4.267 4.267-10.667 4.267-14.934 0s-4.267-10.667 0-14.934l21.333-21.333c2.133-2.133 8.533-4.267 10.667-2.133 4.267 2.133 6.4 6.4 6.4 10.667v64h.001c0 6.4-4.267 10.667-10.667 10.667zm21.333-128h-42.667c-6.4 0-10.667-4.267-10.667-10.667v-64c0-6.4 4.267-10.667 10.667-10.667h42.667c6.4 0 10.667 4.267 10.667 10.667v64c0 6.4-4.267 10.667-10.667 10.667zm74.667 117.333c0 6.4-4.267 10.667-10.667 10.667h-42.667c-6.4 0-10.667-4.267-10.667-10.667v-64c0-6.4 4.267-10.667 10.667-10.667h42.667c6.4 0 10.667 4.267 10.667 10.667zm-10.667-117.333c-6.4 0-10.667-4.267-10.667-10.667v-38.4l-2.133 2.133c-4.267 4.267-10.667 4.267-14.934 0s-4.267-10.667 0-14.934l21.333-21.333c2.133-2.133 8.533-4.267 10.667-2.133 4.267 2.133 6.4 6.4 6.4 10.667v64h.001c0 6.4-4.267 10.667-10.667 10.667zm64 128c-6.4 0-10.667-4.267-10.667-10.667v-38.4l-2.133 2.133c-4.267 4.267-10.667 4.267-14.934 0s-4.267-10.667 0-14.934l21.333-21.333c2.133-2.133 8.533-4.267 10.667-2.133 4.267 2.133 6.4 6.4 6.4 10.667v64h.001c0 6.4-4.267 10.667-10.667 10.667zm0-128c-6.4 0-10.667-4.267-10.667-10.667v-38.4l-2.133 2.133c-4.267 4.267-10.667 4.267-14.934 0s-4.267-10.667 0-14.934l21.333-21.333c2.133-2.133 8.533-4.267 10.667-2.133 4.267 2.133 6.4 6.4 6.4 10.667v64h.001c0 6.4-4.267 10.667-10.667 10.667zm64 128c-6.4 0-10.667-4.267-10.667-10.667v-38.4l-2.133 2.133c-4.267 4.267-10.667 4.267-14.934 0s-4.267-10.667 0-14.934l21.333-21.333c2.133-2.133 8.533-4.267 10.667-2.133 4.267 2.133 6.4 6.4 6.4 10.667v64h.001c0 6.4-4.267 10.667-10.667 10.667zm0-128c-6.4 0-10.667-4.267-10.667-10.667v-38.4l-2.133 2.133c-4.267 4.267-10.667 4.267-14.934 0s-4.267-10.667 0-14.934l21.333-21.333c2.133-2.133 8.533-4.267 10.667-2.133 4.267 2.133 6.4 6.4 6.4 10.667v64h.001c0 6.4-4.267 10.667-10.667 10.667z" data-original="#000000" class="active-path" data-old_color="#000000" fill="#3F4345"/><path d="m213.334 362.667h21.333v42.667h-21.333z" data-original="#000000" class="active-path" data-old_color="#000000" fill="#3F4345"/><path d="m149.334 234.667h21.333v42.667h-21.333z" data-original="#000000" class="active-path" data-old_color="#000000" fill="#3F4345"/></g></g></g><g/><g/><g/><g/><g/><g/><g/><g/><g/><g/><g/><g/><g/><g/><g/></g> </svg>
