<svg xmlns="http://www.w3.org/2000/svg" width="41.062" height="36.5" viewBox="0 0 41.062 36.5"><defs><style>.a{fill:#4b4b4b;}</style></defs><path class="a" d="M40.731,13.826l-1.613-1.613a1.141,1.141,0,0,0-1.613,0l-.806.806-2.06-2.06a4.543,4.543,0,0,0-1.166-4.392L30.247,3.341a11.407,11.407,0,0,0-16.131,0l6.452,3.226V7.9A4.56,4.56,0,0,0,21.9,11.129l3.5,3.5A4.543,4.543,0,0,0,29.8,15.8l2.06,2.06-.806.806a1.141,1.141,0,0,0,0,1.613l1.613,1.613a1.141,1.141,0,0,0,1.613,0l6.452-6.452a1.141,1.141,0,0,0,0-1.613Zm-20.44-1.084a6.918,6.918,0,0,1-.7-.852L1.4,28.869A4.408,4.408,0,1,0,7.634,35.1L24.61,16.916a6.931,6.931,0,0,1-.816-.671l-3.5-3.5Z" transform="translate(-0.003)"/></svg>