<svg xmlns="http://www.w3.org/2000/svg" width="30" height="25.314" viewBox="0 0 30 25.314"><defs><style>.a{fill:#4b4b4b;}</style></defs><path class="a" d="M8.181,32.177a.7.7,0,0,0-1,0l-3.731,3.71-1.33-1.3a.7.7,0,0,0-1,0l-.92.921a.7.7,0,0,0,0,1L3,39.285a.749.749,0,0,0,1.032,0l.913-.915,4.23-4.23a.708.708,0,0,0,.005-1Zm0,9.328a.7.7,0,0,0-1,0L3.453,45.238l-1.33-1.295a.7.7,0,0,0-1,0l-.92.919a.7.7,0,0,0,0,1l2.781,2.783a.748.748,0,0,0,1.031,0l.92-.919,4.23-4.232a.7.7,0,0,0,.005-.99ZM3.751,51.66a2.813,2.813,0,1,0,0,5.625,2.813,2.813,0,1,0,0-5.625Zm25.313.938H12.188a.937.937,0,0,0-.938.938V55.41a.938.938,0,0,0,.938.938H29.063A.938.938,0,0,0,30,55.41V53.535A.937.937,0,0,0,29.063,52.6Zm0-18.75H12.188a.938.938,0,0,0-.938.938V36.66a.938.938,0,0,0,.938.938H29.063A.938.938,0,0,0,30,36.66V34.785A.938.938,0,0,0,29.063,33.847Zm0,9.375H12.188a.938.938,0,0,0-.938.938v1.875a.938.938,0,0,0,.938.938H29.063A.938.938,0,0,0,30,46.035V44.16A.937.937,0,0,0,29.063,43.222Z" transform="translate(-0.001 -31.971)"/></svg>