<svg xmlns="http://www.w3.org/2000/svg" width="22.499" height="30" viewBox="0 0 22.499 30"><defs><style>.a{fill:#4b4b4b;}</style></defs><path class="a" d="M22.17,22.169l-4.681-5.3h1.795A1.331,1.331,0,0,0,20.5,16.1a1.292,1.292,0,0,0-.192-1.409L15.731,9.368h1.693a1.328,1.328,0,0,0,1.222-.8A1.3,1.3,0,0,0,18.4,7.159L11.937.276a.965.965,0,0,0-1.366,0L4.109,7.159A1.3,1.3,0,0,0,3.861,8.57a1.328,1.328,0,0,0,1.223.8H6.776L2.2,14.694A1.294,1.294,0,0,0,2.006,16.1a1.331,1.331,0,0,0,1.218.765H5.018l-4.681,5.3a1.3,1.3,0,0,0-.209,1.421,1.359,1.359,0,0,0,1.231.776H9.379V25.8L7.6,28.636a.938.938,0,0,0,.838,1.357h5.622a.938.938,0,0,0,.838-1.357L13.129,25.8V24.367h8.019a1.359,1.359,0,0,0,1.231-.776A1.3,1.3,0,0,0,22.17,22.169Z" transform="translate(-0.004 0.008)"/></svg>