<svg xmlns="http://www.w3.org/2000/svg" width="22.5" height="30" viewBox="0 0 22.5 30"><defs><style>.a{fill:#4b4b4b;}</style></defs><path class="a" d="M13.125,7.969V0H1.406A1.4,1.4,0,0,0,0,1.406V28.594A1.4,1.4,0,0,0,1.406,30H21.094A1.4,1.4,0,0,0,22.5,28.594V9.375H14.531A1.41,1.41,0,0,1,13.125,7.969ZM3.75,4.219a.469.469,0,0,1,.469-.469H8.906a.469.469,0,0,1,.469.469v.938a.469.469,0,0,1-.469.469H4.219a.469.469,0,0,1-.469-.469Zm0,3.75A.469.469,0,0,1,4.219,7.5H8.906a.469.469,0,0,1,.469.469v.937a.469.469,0,0,1-.469.469H4.219a.469.469,0,0,1-.469-.469ZM15.047,22.5h2.765a.938.938,0,1,1,0,1.875H15.047a2.519,2.519,0,0,1-2.264-1.4.649.649,0,0,0-.6-.382.639.639,0,0,0-.587.363l-.449.9a.937.937,0,0,1-.838.518l-.067,0a.934.934,0,0,1-.822-.638l-.986-2.957-.622,1.868a2.53,2.53,0,0,1-2.4,1.73H4.688a.938.938,0,1,1,0-1.875h.726a.657.657,0,0,0,.623-.449L7.1,18.85a1.407,1.407,0,0,1,2.669,0l.813,2.44a2.629,2.629,0,0,1,3.867.83A.669.669,0,0,0,15.047,22.5ZM22.09,6.152,16.354.41a1.405,1.405,0,0,0-1-.41H15V7.5h7.5V7.143A1.4,1.4,0,0,0,22.09,6.152Z"/></svg>