<svg xmlns="http://www.w3.org/2000/svg" width="35.25" height="47" viewBox="0 0 35.25 47"><defs><style>.a{fill:#4b4b4b;}</style></defs><path class="a" d="M20.563,12.484V0H2.2A2.2,2.2,0,0,0,0,2.2V44.8A2.2,2.2,0,0,0,2.2,47H33.047a2.2,2.2,0,0,0,2.2-2.2V14.688H22.766A2.21,2.21,0,0,1,20.563,12.484Zm5.875,21.664a1.1,1.1,0,0,1-1.1,1.1H9.914a1.1,1.1,0,0,1-1.1-1.1v-.734a1.1,1.1,0,0,1,1.1-1.1H25.336a1.1,1.1,0,0,1,1.1,1.1Zm0-5.875a1.1,1.1,0,0,1-1.1,1.1H9.914a1.1,1.1,0,0,1-1.1-1.1v-.734a1.1,1.1,0,0,1,1.1-1.1H25.336a1.1,1.1,0,0,1,1.1,1.1Zm0-6.609V22.4a1.1,1.1,0,0,1-1.1,1.1H9.914a1.1,1.1,0,0,1-1.1-1.1v-.734a1.1,1.1,0,0,1,1.1-1.1H25.336A1.1,1.1,0,0,1,26.438,21.664ZM35.25,11.19v.56H23.5V0h.56a2.2,2.2,0,0,1,1.561.643l8.987,9A2.2,2.2,0,0,1,35.25,11.19Z"/></svg>