<svg xmlns="http://www.w3.org/2000/svg" width="22.498" height="30" viewBox="0 0 22.498 30"><defs><style>.a{fill:#4b4b4b;}</style></defs><path class="a" d="M21,.162l-2.25,2.625L15.561.162a.932.932,0,0,0-1.125,0L11.249,2.787,8.062.162a.932.932,0,0,0-1.125,0L3.75,2.787,1.5.162A.937.937,0,0,0,0,.912V29.034a.937.937,0,0,0,1.5.75l2.25-2.625,3.187,2.625a.932.932,0,0,0,1.125,0l3.187-2.625,3.187,2.625a.932.932,0,0,0,1.125,0l3.187-2.625L21,29.784a.938.938,0,0,0,1.5-.75V.912A.937.937,0,0,0,21,.162Zm-2.25,20.9a.47.47,0,0,1-.469.469H4.218a.47.47,0,0,1-.469-.469v-.937a.47.47,0,0,1,.469-.469H18.279a.47.47,0,0,1,.469.469Zm0-5.624a.47.47,0,0,1-.469.469H4.218a.47.47,0,0,1-.469-.469V14.5a.47.47,0,0,1,.469-.469H18.279a.47.47,0,0,1,.469.469Zm0-5.624a.47.47,0,0,1-.469.469H4.218a.47.47,0,0,1-.469-.469V8.88a.47.47,0,0,1,.469-.469H18.279a.47.47,0,0,1,.469.469Z" transform="translate(0 0.027)"/></svg>