<svg xmlns="http://www.w3.org/2000/svg" width="30.779" height="30.779" viewBox="0 0 30.779 30.779"><defs><style>.a{fill:#4b4b4b;}</style></defs><path class="a" d="M23.39,8a15.39,15.39,0,1,0,15.39,15.39A15.39,15.39,0,0,0,23.39,8Zm0,27.8A12.411,12.411,0,1,1,35.8,23.39,12.4,12.4,0,0,1,23.39,35.8Zm6.854-5.076c-3.292-5.975-3.118-5.676-3.306-5.963a5.143,5.143,0,0,0,2.45-4.541c0-3.258-1.877-5.29-6.3-5.29H18.207a.745.745,0,0,0-.745.745V31.085a.745.745,0,0,0,.745.745H20.6a.745.745,0,0,0,.745-.745V25.893h1.983l2.949,5.542a.743.743,0,0,0,.657.395h2.657A.745.745,0,0,0,30.243,30.725Zm-6.8-8.334h-2.1v-3.98h1.7c2.012,0,2.416.753,2.416,1.968A1.815,1.815,0,0,1,23.448,22.391Z" transform="translate(-8 -8)"/></svg>