<svg xmlns="http://www.w3.org/2000/svg" width="64" height="64" viewBox="0 0 64 64"><defs><style>.a{fill:#fff;}</style></defs><g transform="translate(0 0)"><path class="a" d="M64,15.11V11.36H56.393V7.607H52.64V0H48.89V7.607H45.134V0h-3.75V7.607H37.628V0h-3.75V7.607H30.122V0h-3.75V7.607H22.616V0h-3.75V7.607H15.11V0H11.36V7.607H7.607V11.36H0v3.75H7.607v3.756H0v3.75H7.607v3.756H0v3.75H7.607v3.756H0v3.75H7.607v3.756H0v3.75H7.607V48.89H0v3.75H7.607v3.753H11.36V64h3.75V56.393h3.756V64h3.75V56.393h3.756V64h3.75V56.393h3.756V64h3.75V56.393h3.756V64h3.75V56.393H48.89V64h3.75V56.393h3.753V52.64H64V48.89H56.393V45.134H64v-3.75H56.393V37.628H64v-3.75H56.393V30.122H64v-3.75H56.393V22.616H64v-3.75H56.393V15.11ZM52.643,52.643H11.357V11.357H52.643Zm0,0"/><path class="a" d="M193.75,173H173v20.75h20.75ZM190,190H176.75V176.75H190Zm0,0" transform="translate(-151.375 -151.375)"/></g></svg>