<svg xmlns="http://www.w3.org/2000/svg" width="74.046" height="65.283" viewBox="0 0 74.046 65.283"><defs><style>.a{fill:#fff;}</style></defs><g transform="translate(-0.001 -0.1)"><path class="a" d="M101.162,64.426H51.592a1.24,1.24,0,0,0-1.24,1.24v34.7a1.24,1.24,0,0,0,1.24,1.239h49.571a1.239,1.239,0,0,0,1.239-1.239v-34.7A1.24,1.24,0,0,0,101.162,64.426ZM54,99.125l9.984-13.978,5.466,7.64-3.7,6.339Zm14.623,0L83.812,73.083,99,99.125ZM99.923,66.9V95.78L84.884,70a1.29,1.29,0,0,0-2.142,0L70.818,90.451,64.993,82.3a1.234,1.234,0,0,0-2.018-.01L52.832,96.5V66.9Zm0,0" transform="translate(-39.353 -50.276)"/><path class="a" d="M73.924,45.952l-3.44-12.84V10.433a3.718,3.718,0,0,0-3.717-3.717H63.406L62.374,2.843A3.725,3.725,0,0,0,57.821.227L33.59,6.715H7.282a3.718,3.718,0,0,0-3.717,3.717v4.327l-.808.215A3.739,3.739,0,0,0,.124,19.528l3.44,12.84V55.047a3.718,3.718,0,0,0,3.717,3.717h3.361l1.032,3.871a3.712,3.712,0,0,0,4.549,2.619h0l24.231-6.489H66.767a3.718,3.718,0,0,0,3.717-3.718V50.72l.808-.216a3.738,3.738,0,0,0,2.632-4.553ZM58.463,2.626a1.239,1.239,0,0,1,1.514.867l.86,3.223H43.171ZM2.519,18.891a1.253,1.253,0,0,1,.88-1.523l.166-.044v5.467ZM15.584,62.86a1.24,1.24,0,0,1-1.514-.867l-.862-3.229H30.878Zm52.421-7.813a1.239,1.239,0,0,1-1.239,1.239H7.282a1.239,1.239,0,0,1-1.239-1.239V10.433A1.239,1.239,0,0,1,7.282,9.194H66.767a1.239,1.239,0,0,1,1.239,1.239Zm2.643-6.94-.165.048V42.687l1.045,3.9A1.254,1.254,0,0,1,70.649,48.107Zm0,0" transform="translate(0 0)"/><path class="a" d="M117.719,102.711a4.957,4.957,0,1,0-4.957-4.956A4.957,4.957,0,0,0,117.719,102.711Zm0-7.435a2.478,2.478,0,1,1-2.479,2.479A2.478,2.478,0,0,1,117.719,95.276Zm0,0" transform="translate(-88.131 -72.45)"/></g></svg>