<svg xmlns="http://www.w3.org/2000/svg" width="36.398" height="46" viewBox="0 0 36.398 46"><defs><style>.a{fill:#fff;}</style></defs><path class="a" d="M89.081,36.607a7.147,7.147,0,0,1-2.172-2.957c-1.871-3.96-2.264-9.54-2.264-13.522,0-.017,0-.035,0-.052A13.052,13.052,0,0,0,76.961,8.238V5.124A5.126,5.126,0,0,0,71.845,0h-.424a5.126,5.126,0,0,0-5.116,5.124V8.238a13.052,13.052,0,0,0-7.684,11.889c0,3.983-.393,9.562-2.264,13.522a7.147,7.147,0,0,1-2.172,2.957,1.31,1.31,0,0,0-.72,1.49,1.371,1.371,0,0,0,1.351,1.053H64.7a6.939,6.939,0,0,0,13.876,0h9.878A1.371,1.371,0,0,0,89.8,38.1,1.31,1.31,0,0,0,89.081,36.607ZM69,5.124A2.425,2.425,0,0,1,71.422,2.7h.424a2.425,2.425,0,0,1,2.421,2.425V7.363a13.052,13.052,0,0,0-5.265,0V5.124ZM71.633,43.3a4.253,4.253,0,0,1-4.243-4.15h8.485A4.253,4.253,0,0,1,71.633,43.3Zm5.427-6.85H57.889a14.124,14.124,0,0,0,.706-1.24c1.806-3.562,2.722-8.637,2.722-15.084a10.31,10.31,0,0,1,18.841-5.812,10.16,10.16,0,0,1,1.791,5.816c0,.017,0,.033,0,.05.005,6.421.921,11.478,2.722,15.03a14.137,14.137,0,0,0,.706,1.24Z" transform="translate(-53.434 0)"/></svg>