<?xml version="1.0" encoding="iso-8859-1"?>
<!-- Generator: Adobe Illustrator 19.0.0, SVG Export Plug-In . SVG Version: 6.00 Build 0)  -->
<svg version="1.1" id="Layer_1" xmlns="http://www.w3.org/2000/svg" xmlns:xlink="http://www.w3.org/1999/xlink" x="0px" y="0px"
	 viewBox="0 0 504 504" style="enable-background:new 0 0 504 504;" xml:space="preserve">
<g>
	<g>
		<path d="M341.408,142.67L255.056,36.85c-0.752-0.916-1.868-1.444-3.052-1.444c-1.184,0-2.3,0.532-3.052,1.444l-86.76,106.312
			c-0.96,1.18-1.16,2.836-0.508,4.208c0.652,1.38,2.04,2.284,3.56,2.284h31.632v90.008c0,2.18,1.564,4.492,3.74,4.492h102.272
			c2.176,0,4.24-2.312,4.24-4.492v-90.008h31.632c0.024,0,0.056,0,0.08,0c2.176,0,3.936-1.792,3.936-3.968
			C342.776,144.494,342.244,143.39,341.408,142.67z"/>
	</g>
</g>
<g>
	<g>
		<path d="M484.188,129.966H361.392c3.212,3.936,5.008,9.952,5.008,15.664c0,7.82-3.296,15.836-8.544,19.772h110.708v170.804
			l-71.584-71.524c-1.54-1.54-4.064-1.54-5.596,0l-74.488,74.752l-71.96-71.656h-44.324c-11.888,0-22.012-7.86-25.872-18.424
			l-48.64,48.512l-32.816-32.888c-1.54-1.536-4.088-1.576-5.628-0.036l-52.22,52.128V165.406h110.828
			c-2.408-3.936-4.456-4.844-5.916-7.92c-4.264-8.96-3.252-19.64,2.392-27.516H19.812C8.952,129.966,0,138.694,0,149.546v299.508
			c0,10.856,8.952,19.54,19.812,19.54h464.376c10.856,0,19.812-8.684,19.812-19.54V149.546
			C504,138.694,495.044,129.966,484.188,129.966z"/>
	</g>
</g>
<g>
</g>
<g>
</g>
<g>
</g>
<g>
</g>
<g>
</g>
<g>
</g>
<g>
</g>
<g>
</g>
<g>
</g>
<g>
</g>
<g>
</g>
<g>
</g>
<g>
</g>
<g>
</g>
<g>
</g>
</svg>
