<svg xmlns="http://www.w3.org/2000/svg" width="51.696" height="63.279" viewBox="0 0 51.696 63.279"><defs><style>.a{fill:#fff;}</style></defs><g transform="translate(-46.857)"><g transform="translate(68.036 4.983)"><g transform="translate(0)"><path class="a" d="M222.886,40.32a4.669,4.669,0,1,0,4.669,4.669A4.675,4.675,0,0,0,222.886,40.32Zm0,7.475a2.806,2.806,0,1,1,2.806-2.806A2.809,2.809,0,0,1,222.886,47.8Z" transform="translate(-218.217 -40.32)"/></g></g><g transform="translate(71.773)"><path class="a" d="M249.391,0a.932.932,0,0,0-.932.932V2.178a.932.932,0,0,0,1.864,0V.932A.932.932,0,0,0,249.391,0Z" transform="translate(-248.459)"/></g><g transform="translate(65.607 2.554)"><path class="a" d="M201.037,21.821l-.881-.881a.932.932,0,1,0-1.318,1.318l.881.881a.932.932,0,0,0,1.318-1.318Z" transform="translate(-198.565 -20.667)"/></g><g transform="translate(63.053 8.721)"><path class="a" d="M180.077,70.56h-1.246a.932.932,0,0,0,0,1.864h1.246a.932.932,0,0,0,0-1.864Z" transform="translate(-177.899 -70.56)"/></g><g transform="translate(65.607 14.006)"><g transform="translate(0)"><path class="a" d="M201.036,113.6a.932.932,0,0,0-1.318,0l-.881.881a.932.932,0,1,0,1.318,1.318l.881-.881A.932.932,0,0,0,201.036,113.6Z" transform="translate(-198.564 -113.328)"/></g></g><g transform="translate(71.773 16.196)"><path class="a" d="M249.391,131.042a.932.932,0,0,0-.932.932v1.246a.932.932,0,0,0,1.864,0v-1.246A.932.932,0,0,0,249.391,131.042Z" transform="translate(-248.459 -131.042)"/></g><g transform="translate(77.059 14.007)"><g transform="translate(0)"><path class="a" d="M293.7,114.483l-.881-.881a.932.932,0,0,0-1.318,1.318l.881.881a.932.932,0,0,0,1.318-1.318Z" transform="translate(-291.226 -113.329)"/></g></g><g transform="translate(79.248 8.721)"><g transform="translate(0)"><path class="a" d="M311.119,70.562h-1.246a.932.932,0,1,0,0,1.864h1.246a.932.932,0,1,0,0-1.864Z" transform="translate(-308.941 -70.562)"/></g></g><g transform="translate(77.059 2.554)"><g transform="translate(0)"><path class="a" d="M293.7,20.939a.932.932,0,0,0-1.318,0l-.881.881a.932.932,0,1,0,1.318,1.318l.881-.881A.932.932,0,0,0,293.7,20.939Z" transform="translate(-291.227 -20.666)"/></g></g><g transform="translate(46.857 23.17)"><g transform="translate(0)"><path class="a" d="M98.551,212.034c0-.016,0-.033,0-.049a.888.888,0,0,0-.015-.1v0L96.874,204l0-.008-1.659-7.882,0-.008-1.661-7.89a.932.932,0,0,0-.912-.74H52.772a.932.932,0,0,0-.912.74L50.2,196.1l0,.01L48.538,204V204l-1.659,7.883a.95.95,0,0,0-.016.1c0,.008,0,.016,0,.024s0,.044,0,.067v3.738a.932.932,0,0,0,.932.932H69.9v5.235H62.738a.932.932,0,0,0-.932.932v2.806H52.772a.932.932,0,0,0,0,1.864H92.637a.932.932,0,0,0,0-1.864H83.6v-2.806a.932.932,0,0,0-.932-.932H75.506v-5.235H97.621a.932.932,0,0,0,.932-.932V212.1a.041.041,0,0,0,0,0v-.012C98.553,212.064,98.552,212.049,98.551,212.034Zm-2.078-.888H81.88l-.423-6.027H95.2Zm-2.93-13.917,1.269,6.027H81.326L80.9,197.23Zm-1.661-7.89,1.269,6.027H80.772l-.423-6.027Zm-24.953,0H78.481l.423,6.027h-12.4Zm-.554,7.89H79.035l.423,6.027h-13.5Zm-.554,7.89H79.588l.423,6.027H65.4ZM53.528,189.34H65.061l-.423,6.027H52.259Zm-1.661,7.89H64.507l-.423,6.027H50.6ZM81.74,223.847v1.874H63.67v-1.874H81.74Zm-9.972-1.864v-5.235h1.874v5.235Zm2.817-7.1H48.721V213.01h4.439a.932.932,0,0,0,0-1.864H48.937l1.269-6.027H63.954l-.423,6.027H57.189a.932.932,0,0,0,0,1.864h39.5v1.874h-22.1Z" transform="translate(-46.857 -187.476)"/></g></g></g></svg>