<svg xmlns="http://www.w3.org/2000/svg" width="46.91" height="45.077" viewBox="0 0 46.91 45.077"><defs><style>.a{fill:#fff;}</style></defs><path class="a" d="M43.795,0H3.115A3.119,3.119,0,0,0,0,3.115v28.4a3.119,3.119,0,0,0,3.115,3.115H18.507V38.3h-.366a5.87,5.87,0,0,0-5.864,5.864.916.916,0,0,0,.916.916H33.716a.916.916,0,0,0,.916-.916A5.87,5.87,0,0,0,28.769,38.3H28.4V34.633H43.795a3.119,3.119,0,0,0,3.115-3.115V3.115A3.119,3.119,0,0,0,43.795,0ZM32.7,43.245H14.215a4.038,4.038,0,0,1,3.926-3.115H28.769A4.038,4.038,0,0,1,32.7,43.245ZM26.57,38.3H20.34V34.633h6.23Zm18.507-6.78A1.284,1.284,0,0,1,43.795,32.8H3.115a1.284,1.284,0,0,1-1.283-1.283V29.135H38.664a.916.916,0,1,0,0-1.832H1.832V3.115A1.284,1.284,0,0,1,3.115,1.832H43.795a1.284,1.284,0,0,1,1.283,1.283Zm0,0"/><path class="a" d="M246.921,327h-.009a.92.92,0,1,0,.009,0Zm0,0" transform="translate(-223.461 -297.04)"/><path class="a" d="M452.92,298a.916.916,0,1,0,.648.268A.923.923,0,0,0,452.92,298Zm0,0" transform="translate(-410.591 -270.697)"/><path class="a" d="M151.318,57.268a.916.916,0,0,0-1.3,0l-8,8-3.138-3.138a.916.916,0,0,0-1.3,0l-4.105,4.105a.916.916,0,0,0,0,1.3l7.89,7.89a.916.916,0,0,0,1.3,0l12.753-12.753a.916.916,0,0,0,0-1.3Zm-9.3,16.21-6.6-6.595,2.809-2.809,3.138,3.138a.917.917,0,0,0,1.3,0l8-8,2.809,2.809Zm0,0" transform="translate(-121.01 -51.778)"/></svg>